<svg width="174" height="25" viewBox="0 0 174 25" fill="none" xmlns="http://www.w3.org/2000/svg">
<g clip-path="url(#clip0_836_4334)">
<path d="M39.9171 14.4321C39.5902 16.0801 39.8158 17.3277 41.4132 17.3277C43.158 17.3277 43.7564 16.1538 44.1063 14.4597L46.2515 4.11094H52.784L50.6893 14.3354C49.52 19.9701 45.6531 21.8162 40.3912 21.8162C35.5253 21.8162 32.1371 19.8182 33.1821 14.6807L35.378 4.09253H42.0623L39.9171 14.4321Z" fill="white"/>
<path d="M55.1273 4.11108H65.1262L65.8305 16.3795H65.8812L68.3993 4.11108H74.1169L70.5262 21.5171H60.716L59.915 8.89877H59.8459L57.2542 21.5171H51.5596L55.1273 4.11108Z" fill="white"/>
<path d="M83.2087 4.11108L79.6133 21.5171H72.9336L76.5244 4.11108H83.2087Z" fill="white"/>
<path d="M84.1299 4.11108H91.2838L92.3564 14.5335H92.407L97.8438 4.11108H104.68L94.6536 21.5171H86.7493L84.1299 4.11108Z" fill="white"/>
<path d="M105.352 4.11108H120.438L119.564 8.30031H111.01L110.485 10.7678H118.666L117.819 14.957H109.638L109.178 17.3278H117.925L117.055 21.5171H101.762L105.352 4.11108Z" fill="white"/>
<path d="M122.455 4.11108H133.255C137.398 4.11108 139.699 5.40468 139.014 8.74685C138.466 11.4169 136.546 12.7611 133.904 13.3504L133.876 13.401C134.434 13.4608 134.966 13.665 135.421 13.9936C135.875 14.3222 136.236 14.7638 136.468 15.2747C137.094 17.1161 136.468 19.8092 136.818 21.5079H129.82C129.77 20.2603 130.244 17.5396 129.922 16.4946C129.696 15.6982 129.047 15.5739 128.223 15.5739H126.727L125.507 21.4848H118.841L122.455 4.11108ZM127.27 11.7161H129.015C130.396 11.7161 131.777 11.5642 132.104 9.79646C132.43 8.22205 131.234 8.00107 129.885 8.00107H128.043L127.27 11.7161Z" fill="white"/>
<path d="M155.14 8.87106C153.551 8.28526 151.87 7.99053 150.177 8.00099C149.132 8.00099 147.309 8.02401 147.06 9.14727C146.6 11.4168 156.189 9.27157 154.79 15.9789C153.869 20.6423 148.98 21.8162 145.122 21.8162C142.758 21.8374 140.401 21.5605 138.106 20.9922L139.055 16.4807C140.868 17.2535 142.82 17.6437 144.791 17.627C146.361 17.627 147.857 17.3001 148.013 16.4301C148.474 14.0823 138.912 16.2045 140.307 9.4465C141.329 4.65882 146.448 3.81177 150.412 3.81177C152.31 3.81875 154.203 4.01927 156.06 4.41023L155.14 8.87106Z" fill="white"/>
<path d="M158.914 4.11108H174.014L173.13 8.28649H164.576L164.052 10.754H172.232L171.38 14.9432H163.204L162.744 17.314H171.491L170.616 21.5033H155.323L158.914 4.11108Z" fill="white"/>
<path d="M21.8116 12.3007C21.7991 14.8292 21.0125 17.2932 19.5577 19.3614C18.103 21.4295 16.0498 23.0026 13.6742 23.869C11.2987 24.7353 8.71491 24.8535 6.27026 24.2075C3.82561 23.5615 1.63742 22.1824 0 20.2556H4.00968C8.70529 20.2556 8.92626 15.3666 8.92626 15.3666H3.35598C2.95095 15.3591 2.55155 15.2704 2.18142 15.1057C1.81128 14.9411 1.47792 14.7039 1.20107 14.4082C0.924226 14.1124 0.709508 13.7642 0.569627 13.384C0.429745 13.0038 0.367542 12.5994 0.386697 12.1948C0.386697 9.40043 3.14882 9.23471 3.34677 9.23471H8.36924C13.0695 9.20709 13.2904 4.33654 13.2904 4.33654H0.0230177C1.66299 2.41788 3.85029 1.04639 6.29171 0.40591C8.73313 -0.234573 11.312 -0.113441 13.6826 0.753071C16.0533 1.61958 18.1024 3.19006 19.5553 5.254C21.0082 7.31793 21.7955 9.77668 21.8116 12.3007Z" fill="#EB2629"/>
</g>
<defs>
<clipPath id="clip0_836_4334">
<rect width="174" height="25" fill="white"/>
</clipPath>
</defs>
</svg>
